<svg width="118" height="112" viewBox="0 0 118 112" fill="none" xmlns="http://www.w3.org/2000/svg">
<path d="M29.5 22.75C29.5 15.9968 23.7106 10.5 16.5938 10.5C9.47688 10.5 3.6875 15.9968 3.6875 22.75C3.6875 29.5032 9.47688 35 16.5938 35C23.7106 35 29.5 29.5032 29.5 22.75ZM16.5938 14C21.677 14 25.8125 17.9253 25.8125 22.75C25.8125 23.1595 25.7424 23.5515 25.6853 23.947C24.6565 23.3258 23.9688 22.2407 23.9688 21C23.9688 20.0323 23.1427 19.25 22.125 19.25H11.0625C10.0448 19.25 9.21875 20.0323 9.21875 21C9.21875 22.2407 8.53103 23.3258 7.50222 23.947C7.44506 23.5515 7.375 23.1595 7.375 22.75C7.375 17.9253 11.5105 14 16.5938 14ZM16.5938 31.5C13.2621 31.5 10.3656 29.7972 8.74491 27.2772C10.6643 26.3882 12.1282 24.7503 12.6739 22.75H20.5154C21.0593 24.7503 22.5251 26.3882 24.4444 27.2772C22.8219 29.7972 19.9254 31.5 16.5938 31.5Z" fill="#B69100"/>
<path d="M103.25 22.75C103.25 15.9968 97.4606 10.5 90.3438 10.5C83.2269 10.5 77.4375 15.9968 77.4375 22.75C77.4375 29.5032 83.2269 35 90.3438 35C97.4606 35 103.25 29.5032 103.25 22.75ZM90.3438 14C95.427 14 99.5625 17.9253 99.5625 22.75C99.5625 23.1595 99.4924 23.5515 99.4353 23.947C98.4065 23.3258 97.7188 22.2407 97.7188 21C97.7188 20.0323 96.8927 19.25 95.875 19.25H84.8125C83.7948 19.25 82.9688 20.0323 82.9688 21C82.9688 22.2407 82.281 23.3258 81.2522 23.947C81.1951 23.5515 81.125 23.1595 81.125 22.75C81.125 17.9253 85.2605 14 90.3438 14ZM90.3438 31.5C87.0121 31.5 84.1156 29.7972 82.4949 27.2772C84.4143 26.3882 85.8782 24.7503 86.4239 22.75H94.2654C94.8093 24.7503 96.2751 26.3882 98.1944 27.2772C96.5719 29.7972 93.6754 31.5 90.3438 31.5Z" fill="#B69100"/>
<path d="M114.312 54.25H105.094V40.25C105.094 37.3555 102.612 35 99.5625 35H90.3438H81.125C78.0754 35 75.5938 37.3555 75.5938 40.25V54.25H66.375C65.3573 54.25 64.5312 55.0323 64.5312 56V63C64.5312 63.9677 65.3573 64.75 66.375 64.75H68.2188V99.75C68.2188 100.718 69.0448 101.5 70.0625 101.5H110.625C111.643 101.5 112.469 100.718 112.469 99.75V64.75H114.312C115.33 64.75 116.156 63.9677 116.156 63V56C116.156 55.0323 115.33 54.25 114.312 54.25ZM92.1875 38.5C92.1875 39.466 91.3597 40.25 90.3438 40.25C89.3278 40.25 88.5 39.466 88.5 38.5H92.1875ZM79.2812 40.25C79.2812 39.284 80.1091 38.5 81.125 38.5H84.8125C84.8125 41.3945 87.2942 43.75 90.3438 43.75C93.3933 43.75 95.875 41.3945 95.875 38.5H99.5625C100.578 38.5 101.406 39.284 101.406 40.25V54.25H99.5625V45.5H95.875V54.25H84.8125V45.5H81.125V54.25H79.2812V40.25ZM108.781 98H71.9062V64.75H108.781V98ZM112.469 61.25H68.2188V57.75H112.469V61.25Z" fill="#B69100"/>
<path d="M45.7545 43.75H49.7812C51.8149 43.75 53.4688 42.1803 53.4688 40.25V28C53.4688 26.0697 51.8149 24.5 49.7812 24.5H42.4062C40.3726 24.5 38.7188 26.0697 38.7188 28V38.5C35.6692 38.5 33.1875 40.8555 33.1875 43.75V44.9172L31.3438 47.25V40.25C31.3438 37.3555 28.8621 35 25.8125 35H16.5938H7.375C4.32544 35 1.84375 37.3555 1.84375 40.25V57.75C1.84375 60.6445 4.32544 63 7.375 63V92.75C5.34134 92.75 3.6875 94.3197 3.6875 96.25V99.75C3.6875 100.718 4.5135 101.5 5.53125 101.5H16.5938H27.6562C28.674 101.5 29.5 100.718 29.5 99.75V96.25C29.5 94.3197 27.8462 92.75 25.8125 92.75V58.2803L26.1223 58.7213C26.4652 59.2078 27.0404 59.5 27.6562 59.5H31.3438C31.9393 59.5 32.4979 59.227 32.8446 58.7668L41.5858 47.152C43.5309 46.8038 45.1018 45.486 45.7545 43.75V43.75ZM42.4062 28H49.7812V40.25H46.0938C46.0938 39.2823 45.2677 38.5 44.25 38.5H42.4062V28ZM38.7188 42H42.4062C42.4062 42.966 41.5784 43.75 40.5625 43.75H36.875C36.875 42.784 37.7028 42 38.7188 42ZM18.4375 38.5C18.4375 39.466 17.6097 40.25 16.5938 40.25C15.5778 40.25 14.75 39.466 14.75 38.5H18.4375ZM5.53125 57.75H7.375V59.5C6.35909 59.5 5.53125 58.716 5.53125 57.75ZM7.375 96.25H9.21875H14.75V98H7.375V96.25ZM25.8125 98H18.4375V96.25H23.9688H25.8125V98ZM18.4375 92.75V63H14.75V92.75H11.0625V59.5H22.125V92.75H18.4375ZM30.3942 56H28.6427L25.8125 51.9698V45.5H22.125V56H11.0625V45.5H7.375V54.25H5.53125V40.25C5.53125 39.284 6.35909 38.5 7.375 38.5H11.0625C11.0625 41.3945 13.5442 43.75 16.5938 43.75C19.6433 43.75 22.125 41.3945 22.125 38.5H25.8125C26.8284 38.5 27.6562 39.284 27.6562 40.25V52.5C27.6562 53.2542 28.1633 53.921 28.9174 54.159C29.6715 54.4022 30.4993 54.1538 30.975 53.5483L35.9531 47.2483H36.9801L30.3942 56Z" fill="#B69100"/>
<path d="M53.4688 68.25H51.625V61.25H55.3125V57.75H36.875V61.25H40.5625V68.25H38.7188C35.6692 68.25 33.1875 70.6055 33.1875 73.5V96.25C33.1875 99.1445 35.6692 101.5 38.7188 101.5H53.4688C56.5183 101.5 59 99.1445 59 96.25V73.5C59 70.6055 56.5183 68.25 53.4688 68.25ZM44.25 61.25H47.9375V68.25H44.25V61.25ZM55.3125 96.25C55.3125 97.216 54.4847 98 53.4688 98H38.7188C37.7028 98 36.875 97.216 36.875 96.25V73.5C36.875 72.534 37.7028 71.75 38.7188 71.75H53.4688C54.4847 71.75 55.3125 72.534 55.3125 73.5V96.25Z" fill="#B69100"/>
<path d="M38.7188 73.5H42.4062V96.25H38.7188V73.5Z" fill="#B69100"/>
<path d="M49.7812 73.5H53.4688V96.25H49.7812V73.5Z" fill="#B69100"/>
<path d="M44.25 73.5H47.9375V96.25H44.25V73.5Z" fill="#B69100"/>
</svg>
