<svg width="122" height="92" viewBox="0 0 122 92" fill="none" xmlns="http://www.w3.org/2000/svg">
<path d="M104.844 7.18748H103.104C102.863 6.96682 102.615 6.74976 102.352 6.5406C100.958 5.42321 99.2854 4.52452 97.4298 3.89619C95.5741 3.26786 93.5721 2.92227 91.5388 2.87929C88.7955 2.82197 86.0803 3.30876 83.6647 4.29099C81.2491 5.27321 79.2177 6.71645 77.7738 8.47638L81.0156 9.98809C81.3357 9.5982 81.6952 9.22754 82.091 8.87942C84.1719 10.9273 86.4936 12.8294 89.0278 14.5626C88.1925 14.3268 87.2739 14.3197 86.4323 14.5426C85.5908 14.7656 84.8798 15.2043 84.4236 15.7823C83.9674 16.3603 83.7948 17.0407 83.9361 17.7048C84.0774 18.369 84.5236 18.9746 85.1967 19.4159C85.8698 19.8572 86.727 20.1062 87.6188 20.1195C88.5106 20.1327 89.3802 19.9093 90.0758 19.4883C90.7714 19.0672 91.2488 18.4753 91.4246 17.8159C91.6004 17.1565 91.4635 16.4714 91.0377 15.8804C92.4736 16.7769 93.9757 17.6269 95.5439 18.4303L90.9391 20.1665L76.7158 21.5073L73.9677 20.125L77.3075 18.4462C77.7165 18.2406 78.0043 17.9238 78.111 17.5619L79.5309 12.7452C79.5722 12.6047 79.6178 12.4657 79.6677 12.3283L75.99 11.5719C75.9243 11.753 75.8637 11.9377 75.8092 12.1219L74.5553 16.3754L69.4738 18.9301C69.2126 19.0613 68.9985 19.2392 68.8504 19.4478C68.7024 19.6565 68.6249 19.8895 68.6249 20.1261C68.6249 20.3628 68.7024 20.5958 68.8504 20.8045C68.9985 21.0131 69.2126 21.191 69.4738 21.3222L74.3438 23.7698V30.1875C74.3455 31.3308 74.9485 32.427 76.0206 33.2355C77.0927 34.0439 78.5463 34.4987 80.0625 34.5H85.7812V41.1833L74.2084 52.0914C70.5265 55.5621 71.0607 61.376 75.0205 64.6264L74.1991 66.3963L67.6669 54.4329C68.0614 54.2622 68.362 53.9908 68.5144 53.6677C68.6669 53.3445 68.661 52.9909 68.498 52.6707L59.9068 35.8263C59.5311 35.1006 58.9035 34.4645 58.0897 33.9847C57.2758 33.505 56.3058 33.1992 55.2812 33.0995V31.625C55.2784 29.7194 54.2733 27.8925 52.4865 26.545C50.6996 25.1976 48.277 24.4396 45.75 24.4375H34.3125C33.8069 24.4375 33.3221 24.5889 32.9646 24.8585C32.6071 25.1281 32.4062 25.4937 32.4062 25.875H26.6875C26.1819 25.875 25.6971 26.0264 25.3396 26.296C24.9821 26.5656 24.7812 26.9312 24.7812 27.3125V33.0625C24.7812 33.4437 24.9821 33.8094 25.3396 34.0789C25.6971 34.3485 26.1819 34.5 26.6875 34.5H28.1484C27.4972 35.0474 27.0425 35.7113 26.8279 36.4287C26.6132 37.146 26.6455 37.8929 26.9218 38.5981C27.1982 39.3034 27.7093 39.9436 28.4065 40.4577C29.1038 40.9719 29.9639 41.3429 30.9051 41.5355C30.6374 42.0411 30.5 42.5806 30.5 43.125V48.875C30.5008 49.6347 30.7677 50.3808 31.2735 51.0378C31.7794 51.6948 32.5063 52.2394 33.3808 52.6166L32.5607 54.0584C32.4587 54.2374 32.4062 54.4302 32.4062 54.625V59.1172H36.2188V54.9204L37.2043 53.1875H43.8438C44.7164 53.1874 45.5775 53.0364 46.3608 52.7463C47.144 52.4561 47.8287 52.0345 48.3623 51.5137L51.4688 57.7607V67.5625H36.2188V62.1719H32.4062V69C32.4062 69.3812 32.6071 69.7469 32.9646 70.0165C33.3221 70.286 33.8069 70.4375 34.3125 70.4375H53.375C53.8806 70.4375 54.3654 70.286 54.7229 70.0165C55.0804 69.7469 55.2812 69.3812 55.2812 69V60.4602L61.8278 73.4156C62.5523 74.8512 63.6677 76.1563 65.1019 77.2469C66.5362 78.3375 68.2575 79.1895 70.1551 79.7478C72.0526 80.3061 74.0842 80.5584 76.119 80.4885C78.1537 80.4185 80.1464 80.0279 81.9688 79.3417V87.6875C81.9688 88.0687 82.1696 88.4344 82.5271 88.704C82.8846 88.9735 83.3694 89.125 83.875 89.125H110.562C111.068 89.125 111.553 88.9735 111.91 88.704C112.268 88.4344 112.469 88.0687 112.469 87.6875V72.0547H108.656V86.25H99.125V56.0625H108.656V68.4609H112.469V46.7187C112.467 45.3815 111.916 44.0776 110.892 42.9859C109.868 41.8941 108.421 41.068 106.75 40.6209V37.2266C106.782 37.2514 106.813 37.2774 106.845 37.302C108.081 38.2398 109.552 38.9832 111.171 39.4893C112.791 39.9953 114.528 40.2539 116.281 40.25C116.787 40.25 117.272 40.0985 117.629 39.8289C117.987 39.5594 118.188 39.1937 118.188 38.8125V17.25C118.183 14.5822 116.776 12.0245 114.275 10.1381C111.773 8.25165 108.381 7.19052 104.844 7.18748V7.18748ZM85.0083 7.02324C86.9454 6.14739 89.1738 5.70684 91.4316 5.75339C97.7759 5.88906 102.938 9.97264 102.938 14.8551V17.7405C102.857 17.7093 102.776 17.6784 102.694 17.6496C101.881 17.3671 100.996 17.2237 100.102 17.2295C94.2714 14.5663 89.1522 11.1048 85.0083 7.02324V7.02324ZM96.1281 26.4171L93.9214 22.2566L99.1488 20.2856C99.6472 20.0978 100.22 20.0557 100.757 20.1674C101.294 20.2791 101.757 20.5367 102.058 20.8905C102.358 21.2444 102.474 21.6695 102.383 22.084C102.293 22.4985 102.002 22.8731 101.567 23.1356L96.1281 26.4171ZM78.1562 30.1875V24.2689L90.2764 23.1265L93 28.2611L87.052 31.625H80.0625C79.5571 31.6246 79.0726 31.473 78.7152 31.2035C78.3578 30.934 78.1568 30.5686 78.1562 30.1875ZM77.1857 53.8883L88.6032 43.125H96.7617C95.8151 44.1874 95.3105 45.4387 95.3125 46.7187V79.0625H85.7812V66.125C85.7812 65.7437 85.5804 65.3781 85.2229 65.1085C84.8654 64.8389 84.3806 64.6875 83.875 64.6875C81.8885 64.6867 79.9697 64.1431 78.4739 63.1574C75.0612 60.9112 74.3328 56.5784 77.1857 53.8883V53.8883ZM45.75 27.3125C47.2662 27.3138 48.7198 27.7685 49.7919 28.577C50.864 29.3855 51.467 30.4816 51.4688 31.625V33.0625H36.2188V27.3125H45.75ZM28.5938 28.75H32.4062V31.625H28.5938V28.75ZM32.4062 35.9375H36.2188C36.7243 35.9375 37.2092 36.0889 37.5667 36.3585C37.9242 36.6281 38.125 36.9937 38.125 37.375C38.125 37.7562 37.9242 38.1219 37.5667 38.3914C37.2092 38.661 36.7243 38.8125 36.2188 38.8125H32.4062C31.9007 38.8125 31.4158 38.661 31.0583 38.3914C30.7008 38.1219 30.5 37.7562 30.5 37.375C30.5 36.9937 30.7008 36.6281 31.0583 36.3585C31.4158 36.0889 31.9007 35.9375 32.4062 35.9375ZM45.75 48.875C45.7494 49.2561 45.5484 49.6215 45.191 49.891C44.8337 50.1605 44.3491 50.3121 43.8438 50.3125H36.2188C35.7134 50.3121 35.2288 50.1605 34.8715 49.891C34.5141 49.6215 34.3131 49.2561 34.3125 48.875V43.125C34.3131 42.7439 34.5141 42.3785 34.8715 42.109C35.2288 41.8395 35.7134 41.6879 36.2188 41.6875H43.8438C44.3491 41.6879 44.8337 41.8395 45.191 42.109C45.5484 42.3785 45.7494 42.7439 45.75 43.125V48.875ZM49.5625 40.25C49.5625 39.8687 49.3617 39.5031 49.0042 39.2335C48.6467 38.9639 48.1618 38.8125 47.6562 38.8125H43.8438C43.3382 38.8125 42.8533 38.661 42.4958 38.3914C42.1383 38.1219 41.9375 37.7562 41.9375 37.375C41.9375 36.9937 42.1383 36.6281 42.4958 36.3585C42.8533 36.0889 43.3382 35.9375 43.8438 35.9375H54.569C54.954 35.9387 55.3296 36.0272 55.6469 36.1915C55.9642 36.3559 56.2086 36.5884 56.3483 36.8589L64.2807 52.4116L54.4589 55.5858L49.5625 45.7393V40.25ZM81.4147 76.2692C80.0683 76.9435 78.5378 77.3807 76.9368 77.5482C75.3359 77.7158 73.7054 77.6094 72.1663 77.2371C70.6273 76.8648 69.219 76.236 68.0461 75.3974C66.8732 74.5588 65.9656 73.5318 65.3906 72.3927L57.9143 57.5968L64.1675 55.5759L72.5812 70.9848C72.725 71.2482 72.9693 71.4734 73.2831 71.6319C73.5969 71.7904 73.9661 71.875 74.3438 71.875H74.3955C74.7818 71.8671 75.1558 71.7709 75.4679 71.5991C75.7801 71.4273 76.0156 71.188 76.1433 70.9129L78.1975 66.4844C79.3749 66.9612 80.6494 67.2868 81.9688 67.4477V75.9704C81.7877 76.0743 81.6037 76.1749 81.4147 76.2692V76.2692ZM85.7812 86.25V81.9375H95.3125V86.25H85.7812ZM108.656 46.7187V53.1875H99.125V46.7187C99.1264 45.7674 99.6273 44.8552 100.518 44.1818C101.409 43.5083 102.618 43.1283 103.879 43.125H103.903C105.164 43.1285 106.373 43.5085 107.263 44.182C108.154 44.8555 108.655 45.7675 108.656 46.7187V46.7187ZM102.938 40.25H89.5938V33.7812L102.938 25.9909V40.25ZM114.375 37.2312C112.223 36.8985 110.289 36.016 108.9 34.7328C107.511 33.4495 106.751 31.844 106.75 30.1875V14.8551C106.751 13.2124 106.307 11.5869 105.445 10.0783C107.863 10.1956 110.131 11.0019 111.789 12.3337C113.447 13.6655 114.372 15.4231 114.375 17.25V37.2312Z" fill="#B69100"/>
<path d="M17.1562 28.75H20.9688V31.625H17.1562V28.75Z" fill="#B69100"/>
<path d="M9.53125 28.75H13.3438V31.625H9.53125V28.75Z" fill="#B69100"/>
<path d="M1.90625 28.75H5.71875V31.625H1.90625V28.75Z" fill="#B69100"/>
<path d="M16.7158 24.3622L18.5 21.8207L21.8703 23.1662L20.086 25.7077L16.7158 24.3622Z" fill="#B69100"/>
<path d="M9.97522 21.6729L11.7595 19.1314L15.1297 20.4769L13.3455 23.0184L9.97522 21.6729Z" fill="#B69100"/>
<path d="M3.2348 18.9832L5.01905 16.4417L8.3893 17.7872L6.60505 20.3287L3.2348 18.9832Z" fill="#B69100"/>
<path d="M16.7161 36.0182L20.0864 34.6728L21.8706 37.2142L18.5004 38.5597L16.7161 36.0182Z" fill="#B69100"/>
<path d="M9.97601 38.7098L13.3463 37.3643L15.1305 39.9058L11.7603 41.2513L9.97601 38.7098Z" fill="#B69100"/>
<path d="M3.23621 41.4013L6.60646 40.0558L8.39071 42.5973L5.02046 43.9428L3.23621 41.4013Z" fill="#B69100"/>
</svg>
