<svg width="142" height="108" viewBox="0 0 142 108" fill="none" xmlns="http://www.w3.org/2000/svg">
<g clip-path="url(#clip0)">
<path d="M115.375 5.69531H73.7737C72.2423 5.69531 71.0003 6.63989 71.0003 7.80469C71.0003 8.96948 72.2423 9.91406 73.7737 9.91406H112.602V23.7657C112.602 24.9305 113.844 25.8751 115.375 25.8751C116.907 25.8751 118.148 24.9305 118.148 23.7657V7.80469C118.148 6.63989 116.907 5.69531 115.375 5.69531Z" fill="#B69100"/>
<path d="M64.6402 6.31336C64.1246 5.9208 63.4091 5.69531 62.6797 5.69531C61.9503 5.69531 61.2347 5.9208 60.7189 6.31336C60.203 6.70591 59.9062 7.24992 59.9062 7.80469C59.9062 8.35945 60.2027 8.90367 60.7189 9.2958C61.2347 9.68836 61.9503 9.91406 62.6797 9.91406C63.4091 9.91406 64.1246 9.68836 64.6402 9.2958C65.1564 8.90367 65.4531 8.35945 65.4531 7.80469C65.4531 7.24992 65.1564 6.7057 64.6402 6.31336Z" fill="#B69100"/>
<path d="M104.281 14.1328H37.7188C36.1873 14.1328 34.9453 15.0774 34.9453 16.2422V33.1172C34.9453 34.282 36.1873 35.2266 37.7188 35.2266H104.281C105.813 35.2266 107.055 34.282 107.055 33.1172V16.2422C107.055 15.0774 105.813 14.1328 104.281 14.1328ZM101.508 31.0078H40.4922V18.3516H101.508V31.0078Z" fill="#B69100"/>
<path d="M139.227 89.6354H127.023V50.4141H139.227C140.133 50.4141 140.983 50.0768 141.502 49.511C142.02 48.9453 142.143 48.2224 141.829 47.5751L134.025 31.4736C133.623 30.6444 132.584 30.0938 131.422 30.0938H116.985C115.823 30.0938 114.785 30.6444 114.383 31.4736L110.519 39.4453H29.3984V9.91406H50.0605C51.592 9.91406 52.834 8.96948 52.834 7.80469C52.834 6.63989 51.592 5.69531 50.0605 5.69531H26.625C25.0935 5.69531 23.8516 6.63989 23.8516 7.80469V37.7367C21.7035 35.9096 18.5834 34.7568 15.115 34.7568C8.65174 34.7568 3.39358 38.756 3.39358 43.6719C3.39358 44.9364 3.73582 46.1605 4.39645 47.2888C1.60943 49.4256 0 52.338 0 55.3892C0 61.0073 5.32777 65.694 12.3415 66.6877V69.8203H2.77344C1.24195 69.8203 0 70.7649 0 71.9297V100.195C0 101.36 1.24195 102.305 2.77344 102.305H27.4565C28.2941 102.305 29.0429 102.021 29.5515 101.575C30.756 102.041 32.117 102.305 33.558 102.305H108.442C108.824 102.305 109.2 102.284 109.57 102.248C109.772 102.284 109.981 102.305 110.198 102.305H139.227C140.758 102.305 142 101.36 142 100.195V91.7445C142 90.5797 140.758 89.6354 139.227 89.6354ZM118.919 34.3126H129.489L135.248 46.1953H124.384C124.339 46.1936 124.295 46.1902 124.25 46.1902C124.205 46.1902 124.161 46.1938 124.116 46.1953H113.159L118.919 34.3126ZM12.3412 55.0494V62.3535C8.41406 61.4469 5.54688 58.6685 5.54688 55.3892C5.54688 53.0461 7.04814 50.8315 9.56254 49.4651C10.1699 49.1351 10.5768 48.6327 10.6908 48.0716C10.805 47.5103 10.617 46.9378 10.1691 46.4837C9.36534 45.668 8.94018 44.6955 8.94018 43.6719C8.94018 41.0824 11.71 38.9756 15.1147 38.9756C18.5194 38.9756 21.2892 41.0822 21.2892 43.6719C21.2892 44.6958 20.8643 45.668 20.0603 46.4839C19.6126 46.938 19.4246 47.5105 19.5389 48.0716C19.6529 48.6327 20.0597 49.1349 20.6671 49.4651C23.1815 50.8315 24.6828 53.0461 24.6828 55.3892C24.6828 58.6685 21.8156 61.4469 17.8881 62.3535V55.0494C17.8881 53.8846 16.6462 52.94 15.1147 52.94C13.5832 52.94 12.3412 53.8846 12.3412 55.0494ZM24.683 98.0859H5.54688V74.0391H24.683V98.0859ZM111.77 95.5547C111.77 96.9505 110.277 98.0859 108.442 98.0859H33.558C31.7229 98.0859 30.2299 96.9505 30.2299 95.5547V82.0547C30.2299 79.9611 32.4695 78.2578 35.2221 78.2578C37.9747 78.2578 40.2143 79.9611 40.2143 82.0547V88.8047C40.2143 89.9695 41.4562 90.9141 42.9877 90.9141H99.0123C100.544 90.9141 101.786 89.9695 101.786 88.8047V82.0547C101.786 79.9611 104.025 78.2578 106.778 78.2578C109.531 78.2578 111.77 79.9611 111.77 82.0547V95.5547V95.5547ZM45.7465 81.6328H96.2535C96.2438 81.7727 96.2388 81.9131 96.2388 82.0547V86.6953H45.7612V82.0547C45.7612 81.9131 45.7559 81.7727 45.7465 81.6328ZM43.807 77.4141C42.4133 75.9272 40.371 74.8164 37.9955 74.3228V63.419C37.9955 61.0168 40.5651 59.0627 43.7235 59.0627H98.5441C101.703 59.0627 104.272 61.0171 104.272 63.419V74.27C101.782 74.7335 99.6385 75.8715 98.193 77.4141H43.807ZM109.819 74.3806V63.4188C109.819 58.6904 104.761 54.8438 98.5444 54.8438H43.7235C37.5066 54.8438 32.4487 58.6904 32.4487 63.4188V74.3226C31.6699 74.4844 30.926 74.7111 30.2299 74.9971V71.9297C30.2299 70.7649 28.988 69.8203 27.4565 69.8203H17.8884V66.6877C24.9021 65.694 30.2299 61.0073 30.2299 55.3892C30.2299 52.338 28.6205 49.4258 25.8335 47.2886C26.4938 46.1603 26.8361 44.9364 26.8361 43.6719C26.8361 43.6693 26.8358 43.6668 26.8358 43.6643H108.474L106.578 47.5753C106.265 48.2224 106.387 48.9453 106.906 49.5113C107.424 50.0772 108.274 50.4143 109.181 50.4143H121.477V89.6356H117.317V82.0547C117.317 78.4388 114.152 75.3758 109.819 74.3806ZM136.453 98.0859H116.667C117.085 97.3038 117.317 96.4497 117.317 95.5547V93.8539H136.453V98.0859Z" fill="#B69100"/>
<path d="M81.8333 63.2812H69.2605C67.729 63.2812 66.4871 64.2258 66.4871 65.3906C66.4871 66.5554 67.729 67.5 69.2605 67.5H81.8333C83.3648 67.5 84.6068 66.5554 84.6068 65.3906C84.6068 64.2258 83.3648 63.2812 81.8333 63.2812Z" fill="#B69100"/>
<path d="M61.4982 63.8993C60.9823 63.5067 60.2668 63.2812 59.5346 63.2812C58.8052 63.2812 58.0924 63.5067 57.5738 63.8993C57.0579 64.2916 56.7612 64.8359 56.7612 65.3906C56.7612 65.9454 57.0576 66.4896 57.5738 66.8817C58.0924 67.2741 58.8052 67.5 59.5346 67.5C60.2668 67.5 60.9823 67.2743 61.4982 66.8817C62.0138 66.4896 62.308 65.9454 62.308 65.3906C62.308 64.8359 62.0138 64.2916 61.4982 63.8993Z" fill="#B69100"/>
</g>
<defs>
<clipPath id="clip0">
<rect width="142" height="108" fill="white"/>
</clipPath>
</defs>
</svg>
