<svg width="128" height="96" viewBox="0 0 128 96" fill="none" xmlns="http://www.w3.org/2000/svg">
<path d="M124 40.5V10.5C124 8.51088 122.946 6.60322 121.071 5.1967C119.196 3.79018 116.652 3 114 3H60C57.8783 3 55.8434 3.63214 54.3431 4.75736C52.8429 5.88258 52 7.4087 52 9C52 10.5913 52.8429 12.1174 54.3431 13.2426C55.8434 14.3679 57.8783 15 60 15H64V28.08L52.28 42.735C52.1082 42.9516 52.0126 43.1973 52.0021 43.4492C51.9916 43.7011 52.0666 43.9508 52.22 44.175L61.44 58.035C62.4477 59.5236 63.9836 60.7748 65.8786 61.6509C67.7735 62.5269 69.954 62.9937 72.18 63H84C84.5304 63 85.0391 63.158 85.4142 63.4393C85.7893 63.7206 86 64.1022 86 64.5V69H78C75.3478 69 72.8043 69.7902 70.9289 71.1967C69.0536 72.6032 68 74.5109 68 76.5V91.5C68 91.8978 68.2107 92.2794 68.5858 92.5607C68.9609 92.842 69.4696 93 70 93H122C122.53 93 123.039 92.842 123.414 92.5607C123.789 92.2794 124 91.8978 124 91.5V73.5C123.995 72.3076 123.362 71.1651 122.237 70.322C121.113 69.4788 119.59 69.0036 118 69V45C119.59 44.9964 121.113 44.5212 122.237 43.678C123.362 42.8349 123.995 41.6924 124 40.5V40.5ZM72.18 60C70.6951 59.9962 69.2405 59.6846 67.9769 59.0995C66.7133 58.5145 65.69 57.6789 65.02 56.685L56.28 43.56L61.32 37.26L88 30.945V46.965L78.8 60H72.18ZM96 25.905L64.44 33.375L67.72 29.265C67.9032 29.0335 67.9999 28.7692 68 28.5V15H96V25.905ZM98.3 28.5H102C102.53 28.5 103.039 28.658 103.414 28.9393C103.789 29.2206 104 29.6022 104 30V33C104 33.3978 103.789 33.7794 103.414 34.0607C103.039 34.342 102.53 34.5 102 34.5H98C97.6385 34.5012 97.2845 34.5776 96.9774 34.7206C96.6702 34.8635 96.4219 35.0676 96.26 35.31L96.24 35.295L92 41.295V30L98.3 28.5ZM84 60H83.32L98.62 38.34L106.5 43.26C108.294 44.3864 110.56 45.0025 112.9 45H114V69H90V64.5C89.9953 63.3076 89.3616 62.1651 88.2374 61.322C87.1132 60.4788 85.5898 60.0036 84 60V60ZM120 73.5V90H72V76.5C72.0047 75.3076 72.6384 74.1651 73.7626 73.322C74.8868 72.4788 76.4102 72.0036 78 72H118C118.53 72 119.039 72.158 119.414 72.4393C119.789 72.7206 120 73.1022 120 73.5ZM112.9 42C111.496 41.9978 110.137 41.6263 109.06 40.95L103.34 37.38C104.663 37.1527 105.844 36.5959 106.69 35.8004C107.536 35.0049 107.998 34.0177 108 33V30C107.995 28.8076 107.362 27.6651 106.237 26.822C105.113 25.9788 103.59 25.5036 102 25.5H100V13.5C100 13.1022 99.7893 12.7206 99.4142 12.4393C99.0391 12.158 98.5304 12 98 12H60C58.9391 12 57.9217 11.6839 57.1716 11.1213C56.4214 10.5587 56 9.79565 56 9C56 8.20435 56.4214 7.44129 57.1716 6.87868C57.9217 6.31607 58.9391 6 60 6H114C115.59 6.00356 117.113 6.47881 118.237 7.32195C119.362 8.1651 119.995 9.30762 120 10.5V40.5C120 40.8978 119.789 41.2794 119.414 41.5607C119.039 41.842 118.53 42 118 42H112.9Z" fill="#B69100"/>
<path d="M34 18H32V16.5C32 16.1022 31.7893 15.7206 31.4142 15.4393C31.0391 15.158 30.5304 15 30 15H22C20.4102 15.0036 18.8868 15.4788 17.7626 16.322C16.6384 17.1651 16.0047 18.3076 16 19.5V52.5C16 52.8978 16.2107 53.2794 16.5858 53.5607C16.9609 53.842 17.4696 54 18 54H26C26.5304 54 27.0391 53.842 27.4142 53.5607C27.7893 53.2794 28 52.8978 28 52.5V48H34C34.5304 48 35.0391 47.842 35.4142 47.5607C35.7893 47.2794 36 46.8978 36 46.5V37.5C36 37.1022 35.7893 36.7206 35.4142 36.4393C35.0391 36.158 34.5304 36 34 36H28V33H30C30.5304 33 31.0391 32.842 31.4142 32.5607C31.7893 32.2794 32 31.8978 32 31.5V30H34C35.5898 29.9964 37.1132 29.5212 38.2374 28.678C39.3616 27.8349 39.9953 26.6924 40 25.5V22.5C39.9953 21.3076 39.3616 20.1651 38.2374 19.322C37.1132 18.4788 35.5898 18.0036 34 18V18ZM24 51H20V33H24V51ZM32 39V45H28V39H32ZM28 30H20V19.5C20 19.1022 20.2107 18.7206 20.5858 18.4393C20.9609 18.158 21.4696 18 22 18H28V30ZM36 25.5C36 25.8978 35.7893 26.2794 35.4142 26.5607C35.0391 26.842 34.5304 27 34 27H32V21H34C34.5304 21 35.0391 21.158 35.4142 21.4393C35.7893 21.7206 36 22.1022 36 22.5V25.5Z" fill="#B69100"/>
<path d="M44 22.5H52V25.5H44V22.5Z" fill="#B69100"/>
<path d="M43.082 18.1582L51.078 15.1597L52.866 17.8417L44.87 20.8402L43.082 18.1582Z" fill="#B69100"/>
<path d="M43.08 29.8507L44.868 27.1687L52.864 30.1672L51.076 32.8492L43.08 29.8507Z" fill="#B69100"/>
<path d="M28 57C23.2533 57 18.6131 58.0557 14.6663 60.0335C10.7195 62.0114 7.64341 64.8226 5.8269 68.1117C4.0104 71.4008 3.53512 75.02 4.46116 78.5116C5.38721 82.0033 7.67299 85.2106 11.0294 87.7279C14.3859 90.2453 18.6623 91.9596 23.3178 92.6541C27.9734 93.3487 32.799 92.9922 37.1844 91.6298C41.5698 90.2674 45.3181 87.9603 47.9553 85.0003C50.5924 82.0402 52 78.5601 52 75C51.9947 70.2273 49.4645 65.6513 44.9647 62.2765C40.465 58.9017 34.3636 57.004 28 57V57ZM28 90C24.0444 90 20.1776 89.1203 16.8886 87.472C13.5996 85.8238 11.0362 83.4811 9.52242 80.7402C8.00867 77.9994 7.6126 74.9834 8.38431 72.0736C9.15601 69.1639 11.0608 66.4912 13.8579 64.3934C16.6549 62.2956 20.2186 60.867 24.0982 60.2882C27.9778 59.7094 31.9992 60.0065 35.6537 61.1418C39.3082 62.2771 42.4318 64.1997 44.6294 66.6664C46.827 69.1332 48 72.0333 48 75C47.9915 78.9763 45.8817 82.7879 42.1328 85.5996C38.3839 88.4113 33.3017 89.9936 28 90V90Z" fill="#B69100"/>
<path d="M26 78.879L19.414 73.9395L16.586 76.0605L24.586 82.0605C24.9611 82.3417 25.4697 82.4996 26 82.4996C26.5303 82.4996 27.0389 82.3417 27.414 82.0605L43.414 70.0605L40.586 67.9395L26 78.879Z" fill="#B69100"/>
<path d="M80 22.5C81.0609 22.5 82.0783 22.8161 82.8284 23.3787C83.5786 23.9413 84 24.7044 84 25.5H88C88 23.9087 87.1571 22.3826 85.6569 21.2574C84.1566 20.1321 82.1217 19.5 80 19.5C77.8783 19.5 75.8434 20.1321 74.3431 21.2574C72.8429 22.3826 72 23.9087 72 25.5H76C76 24.7044 76.4214 23.9413 77.1716 23.3787C77.9217 22.8161 78.9391 22.5 80 22.5V22.5Z" fill="#B69100"/>
</svg>
