<svg width="158" height="117" viewBox="0 0 158 117" fill="none" xmlns="http://www.w3.org/2000/svg">
<g clip-path="url(#clip0)">
<path d="M154.914 47.1885H129.609V42.3515C129.609 41.0894 128.227 40.0663 126.523 40.0663H59.8672C58.1631 40.0663 56.7812 41.0894 56.7812 42.3515C56.7812 43.6136 58.1631 44.6367 59.8672 44.6367H123.438V62.156C123.438 77.5461 112.341 91.8498 94.4241 99.6326H35.1852C17.268 91.85 6.17188 77.5461 6.17188 62.1563V44.6369H26.8477C28.5517 44.6369 29.9336 43.6138 29.9336 42.3517C29.9336 41.0896 28.5517 40.0666 26.8477 40.0666H3.08594C1.38188 40.0666 0 41.0896 0 42.3517V62.1563C0 70.7942 3.13531 79.2639 9.0671 86.6493C13.0674 91.6302 18.2579 96.0287 24.3363 99.6328H3.08594C1.38188 99.6328 0 100.656 0 101.918C0 110.234 9.13653 117 20.3672 117H116.648C127.879 117 137.016 110.234 137.016 101.918C137.016 100.656 135.634 99.6328 133.93 99.6328H105.273C110.868 96.3157 115.707 92.3242 119.562 87.8261H128.272C144.664 87.8261 158 77.9508 158 65.8125V49.4736C158 48.2116 156.618 47.1885 154.914 47.1885ZM130.506 104.203C129.093 108.904 123.416 112.43 116.648 112.43H20.3672C13.5994 112.43 7.92284 108.904 6.50979 104.203H34.3585H95.2509H130.506ZM129.609 62.1563V60.8994H139.484V65.8125C139.484 70.3906 134.455 74.1152 128.272 74.1152H127.571C128.918 70.229 129.609 66.2113 129.609 62.1563ZM151.828 65.8125C151.828 75.4307 141.261 83.2558 128.272 83.2558H123.02C124.005 81.7656 124.885 80.2401 125.654 78.6855H128.272C137.858 78.6855 145.656 72.9107 145.656 65.8125V58.6143C145.656 57.3522 144.274 56.3291 142.57 56.3291H129.609V51.7588H151.828V65.8125Z" fill="#B69100"/>
<path d="M67.7514 12.6467L66.1458 11.1538C63.7888 8.9628 63.7854 5.9 66.1375 3.70579C67.1972 2.71723 66.9738 1.27987 65.6388 0.495377C64.3035 -0.289574 62.3628 -0.123901 61.3031 0.864658C57.1549 4.7348 57.1611 10.1367 61.3182 14.0013L62.9238 15.4942C66.0039 18.3575 66.0085 22.36 62.9349 25.2276L61.2895 26.7628C60.2298 27.7514 60.4532 29.1887 61.7882 29.9732C62.3557 30.3066 63.0324 30.4686 63.7045 30.4686C64.6137 30.4686 65.5144 30.1725 66.1239 29.6039L67.7693 28.0688C72.6389 23.5254 72.6319 17.1836 67.7514 12.6467Z" fill="#B69100"/>
<path d="M84.8565 17.7847L83.2508 16.292C80.8938 14.1008 80.8904 11.038 83.2425 8.84379C84.3022 7.85523 84.0788 6.41787 82.7438 5.63338C81.4085 4.84843 79.4678 5.0141 78.4081 6.00266C74.26 9.8728 74.2662 15.2747 78.4232 19.1396L80.0288 20.6325C83.1086 23.496 83.1132 27.4987 80.0396 30.3661L78.3945 31.901C77.3348 32.8896 77.5582 34.3269 78.8932 35.1114C79.4607 35.4448 80.1375 35.6066 80.8096 35.6066C81.7187 35.6066 82.6198 35.3102 83.2289 34.7419L84.8737 33.207C89.7437 28.6639 89.7366 22.3221 84.8565 17.7847Z" fill="#B69100"/>
<path d="M50.6464 17.7849L49.0408 16.2922C46.6838 14.1012 46.6804 11.0382 49.0322 8.84397C50.0919 7.85541 49.8685 6.41804 48.5335 5.63332C47.1982 4.8486 45.2575 5.0145 44.1977 6.0026C40.0499 9.87274 40.0561 15.2749 44.2132 19.1395L45.8188 20.6324C48.8985 23.4959 48.9032 27.4986 45.8299 30.3658L44.1845 31.9007C43.1248 32.8893 43.3479 34.3267 44.6829 35.1114C45.2504 35.4448 45.9268 35.6068 46.5992 35.6068C47.5083 35.6068 48.4091 35.3106 49.0183 34.7423L50.664 33.2072C55.5336 28.664 55.5265 22.3223 50.6464 17.7849Z" fill="#B69100"/>
<path d="M46.3755 40.7352C45.8015 40.3102 45.0053 40.0657 44.1937 40.0657C43.3821 40.0657 42.5859 40.3102 42.012 40.7352C41.4383 41.1625 41.1078 41.7498 41.1078 42.3508C41.1078 42.9518 41.438 43.5414 42.012 43.9687C42.5859 44.3938 43.3821 44.636 44.1937 44.636C45.0053 44.636 45.8015 44.3938 46.3755 43.9687C46.9522 43.5414 47.2797 42.9541 47.2797 42.3508C47.2797 41.7498 46.9522 41.1603 46.3755 40.7352Z" fill="#B69100"/>
<path d="M111.711 59.8711C110.007 59.8711 108.625 60.8942 108.625 62.1563C108.625 70.6385 103.979 78.9745 95.8776 85.0268C94.6778 85.923 94.6868 87.37 95.8971 88.2585C96.4988 88.7002 97.2842 88.9207 98.0696 88.9207C98.8639 88.9205 99.6582 88.6947 100.262 88.2438C109.499 81.3427 114.797 71.8341 114.797 62.1563C114.797 60.8942 113.415 59.8711 111.711 59.8711Z" fill="#B69100"/>
<path d="M90.691 91.2292C89.8535 90.1298 87.9714 89.7415 86.487 90.3615L86.4167 90.391C84.932 91.0112 84.4077 92.4049 85.245 93.5041C85.8122 94.2486 86.858 94.667 87.9356 94.667C88.4491 94.667 88.97 94.5717 89.4489 94.3717L89.5193 94.3423C91.0039 93.7221 91.5282 92.3283 90.691 91.2292Z" fill="#B69100"/>
</g>
<defs>
<clipPath id="clip0">
<rect width="158" height="117" fill="white"/>
</clipPath>
</defs>
</svg>
