<svg width="94" height="82" viewBox="0 0 94 82" fill="none" xmlns="http://www.w3.org/2000/svg">
<path d="M63.175 0V2.41692H85.3327V79.5831H8.64561V2.41692H58.7606V0H5.875V82H88.1033V0H63.175Z" fill="#B69100"/>
<path d="M80.7462 6.41797H13.2322V75.5819H32.2749V73.165H16.003V42.2084H77.9756V73.165H36.689V75.5819H80.7462V6.41797ZM77.9756 39.7915H16.0028V8.83505H77.9754V39.7915H77.9756Z" fill="#B69100"/>
<path d="M64.5604 11.4772H61.7896V19.2538H32.1888V11.4772H29.418V21.6709H64.5604V11.4772Z" fill="#B69100"/>
<path d="M29.418 70.5227H32.1888V62.7462H61.7896V70.5227H64.5604V60.3291H29.418V70.5227Z" fill="#B69100"/>
<path d="M64.5603 49.9851C64.5603 47.1955 61.9586 44.9259 58.7608 44.9259C55.563 44.9259 52.9612 47.1955 52.9612 49.9851C52.9612 52.7747 55.563 55.0443 58.7608 55.0443C61.9586 55.0444 64.5603 52.7748 64.5603 49.9851ZM55.7317 49.9851C55.7317 48.5281 57.0905 47.3428 58.7606 47.3428C60.4308 47.3428 61.7895 48.5281 61.7895 49.9851C61.7895 51.442 60.4308 52.6273 58.7606 52.6273C57.0903 52.6273 55.7317 51.4422 55.7317 49.9851Z" fill="#B69100"/>
<path d="M29.3318 35.7903C32.5297 35.7903 35.1314 33.5207 35.1314 30.7311C35.1314 27.9415 32.5297 25.6719 29.3318 25.6719C26.134 25.6719 23.5323 27.9415 23.5323 30.7311C23.5323 33.5207 26.1338 35.7903 29.3318 35.7903ZM29.3318 28.089C31.002 28.089 32.3608 29.2743 32.3608 30.7313C32.3608 32.1882 31.002 33.3735 29.3318 33.3735C27.6617 33.3735 26.3029 32.1882 26.3029 30.7313C26.3029 29.2743 27.6617 28.089 29.3318 28.089Z" fill="#B69100"/>
<path d="M74.9473 11.5515H72.0043V13.9684H74.9473V11.5515Z" fill="#B69100"/>
<path d="M74.9473 16.6867H72.0043V19.1036H74.9473V16.6867Z" fill="#B69100"/>
<path d="M21.974 68.0312H19.0309V70.4481H21.974V68.0312Z" fill="#B69100"/>
<path d="M21.974 62.8959H19.0309V65.3129H21.974V62.8959Z" fill="#B69100"/>
</svg>
