<svg width="99" height="82" viewBox="0 0 99 82" fill="none" xmlns="http://www.w3.org/2000/svg">
<path d="M69.8315 55L65.1345 46.676C70.064 53.4102 79.1843 53.7448 84.5103 47.5192C89.3724 41.8342 89.1236 32.9063 83.953 27.559C78.7846 22.2137 70.6636 22.485 65.8004 28.171C62.0647 32.5395 61.3869 38.751 63.4899 43.7627L52.1286 23.6266L68.9886 18.2773C74.2255 16.6151 76.7 10.0247 74.0397 4.78292C72.1073 0.977191 68.0978 -0.837738 64.2905 0.37121L38.7632 8.47006C32.1456 10.5704 29.1812 19.03 32.8159 25.4707L40.5305 39.144L27 48.3754C43.2788 48.7864 55.0409 54.2362 69.8315 55Z" fill="#B69100"/>
<path d="M3.69386 63.5856C41.1663 52.085 55.3189 75.3031 96.8317 63.6036C98.3816 63.1669 99.31 61.4562 98.9052 59.7824C98.5015 58.1096 96.9164 57.1074 95.3665 57.543C55.4839 68.7848 41.3115 45.5288 2.10767 57.561C0.567672 58.0337 -0.326628 59.7664 0.11117 61.4302C0.548969 63.094 2.15387 64.0583 3.69386 63.5856Z" fill="#B69100"/>
<path d="M95.3665 72.5488C55.4102 83.8044 41.3896 60.5162 2.10767 72.5668C0.567672 73.0392 -0.326628 74.77 0.11117 76.4328C0.548969 78.0957 2.15387 79.0605 3.69386 78.5881C41.1663 67.0928 55.3189 90.2991 96.8317 78.6051C98.3816 78.1686 99.31 76.4588 98.9052 74.787C98.5015 73.1141 96.9164 72.1124 95.3665 72.5488Z" fill="#B69100"/>
</svg>
