<svg width="62" height="62" viewBox="0 0 62 62" fill="none" xmlns="http://www.w3.org/2000/svg">
<path d="M57.0352 29.5241V27.4883C57.0352 25.1203 55.5165 23.1013 53.4023 22.3515V1.81641C53.4023 0.813266 52.5891 0 51.5859 0C50.5828 0 49.7695 0.813266 49.7695 1.81641V22.3515C47.6554 23.1013 46.1367 25.1203 46.1367 27.4883V29.3047H15.8633V27.4883C15.8633 25.1203 14.3446 23.1013 12.2305 22.3515V1.81641C12.2305 0.813266 11.4172 0 10.4141 0C9.41092 0 8.59766 0.813266 8.59766 1.81641V22.3515C6.48348 23.1013 4.96484 25.1203 4.96484 27.4883V29.5241C2.11091 30.2759 0 32.8782 0 35.9648V48.0742C0 51.1609 2.11091 53.7632 4.96484 54.515V60.1836C4.96484 61.1867 5.77811 62 6.78125 62H55.2188C56.2219 62 57.0352 61.1867 57.0352 60.1836V54.515C59.8891 53.7632 62 51.1609 62 48.0742V35.9648C62 32.8782 59.8891 30.2759 57.0352 29.5241ZM49.7695 27.4883C49.7695 26.4867 50.5844 25.6719 51.5859 25.6719C52.5875 25.6719 53.4023 26.4867 53.4023 27.4883V29.3047H49.7695V27.4883ZM10.4141 25.6719C11.4156 25.6719 12.2305 26.4867 12.2305 27.4883V29.3047H8.59766V27.4883C8.59766 26.4867 9.4125 25.6719 10.4141 25.6719ZM8.59766 58.3672V54.7344H53.4023V58.3672H8.59766ZM58.3672 48.0742C58.3672 49.7435 57.0091 51.1016 55.3398 51.1016H6.66016C4.99088 51.1016 3.63281 49.7435 3.63281 48.0742V35.9648C3.63281 34.2956 4.99088 32.9375 6.66016 32.9375H55.3398C57.0091 32.9375 58.3672 34.2956 58.3672 35.9648V48.0742Z" fill="#B69100"/>
<path d="M49.1641 36.5703C46.1594 36.5703 43.7148 39.0148 43.7148 42.0195C43.7148 45.0242 46.1594 47.4688 49.1641 47.4688C52.1688 47.4688 54.6133 45.0242 54.6133 42.0195C54.6133 39.0148 52.1688 36.5703 49.1641 36.5703ZM49.1641 43.8359C48.1625 43.8359 47.3477 43.0211 47.3477 42.0195C47.3477 41.018 48.1625 40.2031 49.1641 40.2031C50.1656 40.2031 50.9805 41.018 50.9805 42.0195C50.9805 43.0211 50.1656 43.8359 49.1641 43.8359Z" fill="#B69100"/>
<path d="M12.8359 36.5703C9.83124 36.5703 7.38672 39.0148 7.38672 42.0195C7.38672 45.0242 9.83124 47.4688 12.8359 47.4688C15.8406 47.4688 18.2852 45.0242 18.2852 42.0195C18.2852 39.0148 15.8406 36.5703 12.8359 36.5703ZM12.8359 43.8359C11.8344 43.8359 11.0195 43.0211 11.0195 42.0195C11.0195 41.018 11.8344 40.2031 12.8359 40.2031C13.8375 40.2031 14.6523 41.018 14.6523 42.0195C14.6523 43.0211 13.8375 43.8359 12.8359 43.8359Z" fill="#B69100"/>
<path d="M18.1561 8.94459C18.6209 8.94459 19.0858 8.76719 19.4404 8.4125C22.5228 5.3303 26.628 3.63281 31.0001 3.63281C35.3721 3.63281 39.4773 5.33043 42.5595 8.41263C43.2687 9.12199 44.4188 9.12199 45.1283 8.41263C45.8376 7.70338 45.8376 6.55323 45.1283 5.84386C41.3599 2.07543 36.3425 0.000121094 31.0001 0C30.9998 0 31.0002 0 31 0C25.658 0 20.6399 2.07555 16.8717 5.84386C16.1624 6.55311 16.1624 7.70326 16.8717 8.41263C17.2263 8.76719 17.6912 8.94459 18.1561 8.94459V8.94459Z" fill="#B69100"/>
<path d="M38.7065 14.0821C39.1713 14.0821 39.6362 13.9047 39.9908 13.55C40.7002 12.8408 40.7002 11.6906 39.9908 10.9813C35.0333 6.02382 26.9667 6.02382 22.0093 10.9813C21.3 11.6905 21.3 12.8407 22.0093 13.55C22.7186 14.2593 23.8687 14.2593 24.5781 13.55C28.119 10.009 33.8808 10.0089 37.422 13.55C37.7767 13.9047 38.2416 14.0821 38.7065 14.0821Z" fill="#B69100"/>
<path d="M27.1468 16.1189C26.4374 16.8282 26.4374 17.9783 27.1468 18.6877C27.856 19.3969 29.0062 19.3969 29.7155 18.6877C30.0586 18.3446 30.5147 18.1556 31 18.1556C31.4852 18.1556 31.9412 18.3446 32.2844 18.6877C32.6391 19.0424 33.104 19.2198 33.5687 19.2198C34.0335 19.2198 34.4985 19.0424 34.853 18.6877C35.5624 17.9784 35.5624 16.8283 34.853 16.1189C33.8237 15.0896 32.4554 14.5228 30.9998 14.5228C29.5443 14.5228 28.1761 15.0896 27.1468 16.1189V16.1189Z" fill="#B69100"/>
<path d="M39.4766 36.5703H34.6328C33.6297 36.5703 32.8164 37.3836 32.8164 38.3867C32.8164 39.3899 33.6297 40.2031 34.6328 40.2031H39.4766C40.4797 40.2031 41.293 39.3899 41.293 38.3867C41.293 37.3836 40.4797 36.5703 39.4766 36.5703Z" fill="#B69100"/>
<path d="M27.3672 36.5703H22.5234C21.5203 36.5703 20.707 37.3836 20.707 38.3867C20.707 39.3899 21.5203 40.2031 22.5234 40.2031H27.3672C28.3703 40.2031 29.1836 39.3899 29.1836 38.3867C29.1836 37.3836 28.3703 36.5703 27.3672 36.5703Z" fill="#B69100"/>
<path d="M38.2656 47.4688C39.2688 47.4688 40.082 46.6555 40.082 45.6523C40.082 44.6492 39.2688 43.8359 38.2656 43.8359C37.2625 43.8359 36.4492 44.6492 36.4492 45.6523C36.4492 46.6555 37.2625 47.4688 38.2656 47.4688Z" fill="#B69100"/>
<path d="M31 47.4688C32.0032 47.4688 32.8164 46.6555 32.8164 45.6523C32.8164 44.6492 32.0032 43.8359 31 43.8359C29.9968 43.8359 29.1836 44.6492 29.1836 45.6523C29.1836 46.6555 29.9968 47.4688 31 47.4688Z" fill="#B69100"/>
<path d="M23.7344 47.4688C24.7375 47.4688 25.5508 46.6555 25.5508 45.6523C25.5508 44.6492 24.7375 43.8359 23.7344 43.8359C22.7312 43.8359 21.918 44.6492 21.918 45.6523C21.918 46.6555 22.7312 47.4688 23.7344 47.4688Z" fill="#B69100"/>
</svg>
